<?xml version="1.0" encoding="UTF-8" standalone="no"?>
<!-- Created with Inkscape (http://www.inkscape.org/) -->

<svg
   width="60mm"
   height="60mm"
   viewBox="0 0 255.79465 253.05469"
   version="1.1"
   id="svg1"
   xml:space="preserve"
   xmlns:inkscape="http://www.inkscape.org/namespaces/inkscape"
   xmlns:sodipodi="http://sodipodi.sourceforge.net/DTD/sodipodi-0.dtd"
   xmlns:xlink="http://www.w3.org/1999/xlink"
   xmlns="http://www.w3.org/2000/svg"
   xmlns:svg="http://www.w3.org/2000/svg"><sodipodi:namedview
     id="namedview1"
     pagecolor="#ffffff"
     bordercolor="#000000"
     borderopacity="0.25"
     inkscape:showpageshadow="2"
     inkscape:pageopacity="0.0"
     inkscape:pagecheckerboard="true"
     inkscape:deskcolor="#d1d1d1"
     inkscape:document-units="mm"
     inkscape:zoom="0.54236816"
     inkscape:cx="186.22037"
     inkscape:cy="705.24051"
     inkscape:window-width="1920"
     inkscape:window-height="1057"
     inkscape:window-x="-8"
     inkscape:window-y="-8"
     inkscape:window-maximized="1"
     inkscape:current-layer="layer1" /><defs
     id="defs1"><linearGradient
       id="linearGradient68700"
       inkscape:collect="always"><stop
         style="stop-color:#0c5892;stop-opacity:1;"
         offset="0"
         id="stop68699" /><stop
         style="stop-color:#13a6ba;stop-opacity:1;"
         offset="0.49039915"
         id="stop68701" /><stop
         style="stop-color:#2cb3a5;stop-opacity:1;"
         offset="1"
         id="stop68700" /></linearGradient><linearGradient
       id="linearGradient28846"
       inkscape:collect="always"><stop
         style="stop-color:#006198;stop-opacity:1;"
         offset="0"
         id="stop28846" /><stop
         style="stop-color:#6017ae;stop-opacity:1;"
         offset="0.20840399"
         id="stop68702" /><stop
         style="stop-color:#71b94e;stop-opacity:1;"
         offset="1"
         id="stop28847" /></linearGradient><linearGradient
       inkscape:collect="always"
       xlink:href="#linearGradient68700"
       id="linearGradient28847"
       x1="28.044237"
       y1="372.32611"
       x2="258.50003"
       y2="347.62112"
       gradientUnits="userSpaceOnUse"
       gradientTransform="matrix(0.72011561,0,0,0.72011561,2.0877214,-24.790263)" /><linearGradient
       inkscape:collect="always"
       xlink:href="#linearGradient28846"
       id="linearGradient68699"
       gradientUnits="userSpaceOnUse"
       gradientTransform="matrix(0.72011561,0,0,0.72011561,1.7465167,-25.0119)"
       x1="86.00531"
       y1="288.49811"
       x2="233.59114"
       y2="210.14319" /></defs><g
     inkscape:label="Layer 1"
     inkscape:groupmode="layer"
     id="layer1"
     transform="translate(-63.157388,-40.707919)"><g
       id="g68702"
       transform="matrix(1.4351963,0,0,1.4351963,31.325174,-53.422646)"><path
         style="display:inline;fill:url(#linearGradient68699);fill-opacity:1;stroke:none;stroke-width:0.720116"
         d="m 109.4427,73.399002 h 0.38106 l 1.90531,-3.0485 h 0.19052 l -1.52424,3.62009 c 4.11892,-0.97832 5.07854,-4.63249 4.3822,-8.38335 -4.28685,0.19597 -6.3335,3.95181 -5.33485,7.81176 m -4.76326,1.9053 v -3.62008 h 0.19052 l 0.5716,3.62008 c 2.14459,-1.74713 2.3336,-4.71463 1.08143,-7.04963 -0.32927,-0.61402 -1.16922,-2.22478 -2.02453,-2.11084 -0.79921,0.10648 -1.48589,1.46935 -1.79401,2.11084 -1.15387,2.40226 -0.62175,5.83788 1.97499,7.04963 m -16.195113,-8.76441 c -4.28283,4.29469 -6.284529,10.18822 -5.525383,16.1951 -6.513532,-3.42718 -11.974202,-4.40225 -19.243589,-4.3822 v 0.19053 c 3.376939,0.26877 7.04806,1.57771 10.098121,3.0066 2.950026,1.38202 5.691347,2.96858 8.192813,5.07932 7.203382,6.07823 9.72671,15.781608 9.328501,24.875868 -0.180937,4.13213 -0.945152,8.2424 -0.945152,12.38449 h -0.190535 c -0.916045,-2.41678 -3.037103,-4.5559 -4.709608,-6.47804 -4.429812,-5.09107 -10.540757,-10.62771 -16.820342,-13.33715 2.504807,3.48242 6.421902,6.27242 9.281596,9.52653 5.48543,6.242 10.881048,13.90253 11.469189,22.48262 0.237998,3.47199 -0.486799,6.89533 -1.126139,10.28865 h -0.190528 c -0.502029,-2.11356 -1.827942,-4.06378 -2.934112,-5.90645 -3.52336,-5.86928 -8.685717,-10.52269 -12.222627,-16.38564 C 65.255431,111.33104 64.950843,96.043432 67.716498,81.782342 H 67.52597 c -5.717956,13.93724 -7.19353,31.599948 1.524247,44.774688 -10.660275,-4.43817 -21.725708,-8.61459 -24.98156,-20.95837 -0.682928,-2.58919 -0.754875,-5.15505 -0.74007,-7.811748 h -0.190535 c -2.042284,7.250488 -1.261009,15.380778 4.001142,21.148888 1.241919,1.36132 2.624498,2.94401 4.382206,3.62008 v 0.19053 c -5.741359,1.06653 -11.494327,1.31395 -16.766689,-1.58365 -1.854161,-1.019 -3.251538,-2.55227 -4.953798,-3.7512 1.135054,4.77873 6.595654,8.32875 11.241307,8.95493 -3.46107,3.78971 -7.378203,6.92888 -7.621228,12.57502 h 0.190535 c 0.942466,-2.26306 2.471466,-4.18413 4.191671,-5.90644 7.934464,-7.94417 17.984218,-7.83602 27.626933,-3.28077 11.334775,5.35458 19.208685,17.87748 19.243589,30.52664 -4.053862,-4.63721 -9.788258,-7.41083 -14.082211,-11.82038 -4.235446,-4.34949 -6.346177,-9.76949 -7.447745,-15.61603 h -0.190528 c 0,7.70199 1.697456,13.81331 7.049629,19.62466 -4.054417,-1.31884 -8.65031,-1.22038 -12.575019,-2.75579 -4.761505,-1.86277 -7.600417,-7.37339 -7.811749,-12.29613 h -0.190536 c -0.932103,3.87034 -0.258428,8.19123 2.095839,11.43183 -5.742749,-0.77335 -13.80193,-3.27625 -17.338281,-8.19281 h -0.190535 c 0.430218,2.38394 2.621847,4.58609 4.382206,6.09684 5.747862,4.93282 12.618801,5.57157 19.624648,7.2403 l -2.857959,1.52425 c 9.16296,-2.18148 20.706223,3.83417 25.090647,11.81289 5.538783,10.07942 5.038433,23.63884 3.186677,34.67657 -0.816568,4.86732 -2.239329,9.80216 -5.377046,13.7182 -1.926266,2.40405 -4.989951,5.43984 -8.038892,6.3544 -3.059476,0.91772 -7.473425,0.12364 -10.669708,0.12364 -6.417944,0 -12.839374,0.47377 -19.243592,0.75463 -3.202239,0.14043 -7.550369,-0.0925 -10.47918,1.34121 v 0.19052 c 1.612231,0.80915 3.569757,0.79529 5.334854,0.98427 3.616838,0.38722 7.229723,0.57905 10.860244,0.738 11.545347,0.50554 23.129148,0.43204 34.676559,0.93768 4.919412,0.21539 11.395801,-0.61625 16.00457,1.3412 -3.419498,1.45235 -7.976584,0.99103 -11.622364,1.15067 -8.493713,0.37195 -17.033259,0.54368 -25.531091,0.75184 -4.682005,0.11469 -10.872154,-0.35329 -15.24245,1.52704 v 0.19052 c 1.502838,0.75427 3.308211,0.80481 4.953798,1.0069 3.668017,0.45048 7.364111,0.55396 11.050772,0.71537 10.962392,0.48003 22.01527,0.17849 32.961784,0.92812 3.953514,0.27074 9.330149,-0.46903 12.956089,1.35076 -2.84026,0.79815 -5.84713,0.76994 -8.764411,0.9697 -4.627916,0.31694 -9.274462,0.53463 -13.908738,0.73758 -3.028086,0.13258 -6.689975,-0.0541 -9.526525,1.15068 v 0.38106 c 1.969624,0.98852 4.511107,0.95965 6.668566,1.17537 4.566793,0.45665 9.136367,0.5368 13.718203,0.73742 12.857955,0.56304 25.819865,0.56304 38.677705,0 6.05498,-0.26512 12.83198,0.13286 18.672,-1.72226 v -0.38106 c -2.32967,-0.98944 -5.13879,-0.93832 -7.62122,-1.17552 -7.08355,-0.67688 -14.82231,0.0655 -21.72049,-1.87297 v -0.19053 c 3.5294,-1.12113 7.39955,-0.91018 11.05077,-1.16023 6.90439,-0.47282 13.85375,-0.62534 20.76784,-0.92812 4.03226,-0.17655 9.68364,0.19323 13.33713,-1.72227 v -0.19052 c -2.69398,-1.41242 -6.38011,-1.08476 -9.33599,-1.36605 -6.64271,-0.63219 -13.35063,-0.44753 -20.00571,-0.90327 -3.23805,-0.22174 -6.81421,-0.0307 -9.90759,-1.16023 1.8279,-0.9174 4.10289,-0.79446 6.09698,-0.98499 4.6796,-0.44716 9.39867,-0.42692 14.09926,-0.54205 13.85145,-0.33929 28.45567,0.3639 42.10726,-2.28358 -0.53333,-0.84626 -1.73845,-0.85757 -2.66743,-0.96221 -2.28532,-0.25744 -4.57368,-0.37673 -6.8591,-0.59436 -9.89883,-0.94268 -19.9621,-0.92032 -29.9133,-0.92032 v -0.19053 c 7.73812,-1.79023 14.34096,-7.88544 18.12671,-14.67086 1.45761,-2.61259 2.03506,-6.77979 4.01556,-8.93715 3.3838,-3.68596 9.88796,-3.98618 14.24907,-5.98303 8.9658,-4.10527 15.21468,-13.52088 12.3279,-23.567 -0.72047,-2.50722 -1.9451,-5.31213 -4.13508,-6.8591 0.31395,1.52192 0.50476,3.01054 0.34856,4.57274 -0.10905,1.09079 -0.40287,2.22497 -0.81608,3.23902 -0.36255,0.88972 -0.88457,1.7395 -1.49985,2.4769 -3.59095,4.30382 -8.59376,2.38056 -13.27508,3.70167 -2.41864,0.68258 -4.09215,2.06092 -5.71592,3.91955 -0.54603,-6.21541 -7.43393,-6.54709 -11.43184,-9.31777 -4.99735,-3.46331 -3.89473,-9.25829 -1.71477,-13.92696 -1.75673,0.64318 -3.36024,1.96512 -4.65286,3.29342 -7.61836,7.82861 -4.96709,20.82665 2.74756,27.49152 2.62984,2.272 5.72514,4.16795 8.04903,6.76663 0.80889,0.90453 2.03618,2.29628 1.70538,3.60304 -0.60539,2.39139 -2.65629,4.84287 -4.22903,6.66856 -6.0917,7.07154 -16.53111,10.8683 -24.9595,5.44173 -4.85856,-3.12815 -6.24651,-8.94412 -10.66986,-12.39344 -1.97659,-1.54136 -4.54952,-2.62598 -7.04949,-2.92355 -1.3816,-0.16443 -3.76379,0.34352 -4.55568,-0.98865 -1.18798,-1.9985 -0.0708,-5.07407 0.62026,-7.04596 1.71034,-4.88063 4.94057,-9.05183 2.79224,-14.28979 3.2963,3.14565 11.26009,5.14567 13.14661,-0.76212 -4.92096,2.96239 -7.7899,-0.68059 -10.28865,-4.76327 l 4.57273,1.1357 8.57388,0.15641 3.62008,2.13744 c -1.88349,-4.36429 -6.68672,-4.00114 -10.66971,-4.00114 v -0.19053 c 3.05574,-0.99601 6.29318,-4.9047 9.71706,-3.38883 1.02091,0.452 1.63427,1.37579 2.47689,2.05511 -0.92586,-2.71906 -3.02102,-4.12557 -5.90644,-3.77547 -3.6189,0.43912 -5.44678,4.30862 -9.52654,3.93351 -4.56386,-0.41962 -8.31345,-3.71955 -12.38449,-5.51922 -3.48392,-1.54011 -6.60293,-1.59872 -10.28864,-1.30739 8.10915,-6.66277 17.0596,5.5166 25.34057,4.93675 2.89235,-0.20253 5.5825,-1.94478 6.11153,-4.93675 0.19374,-1.09569 0.26003,-2.22924 -0.58615,-3.04849 -1.80509,4.85546 -7.83536,2.86317 -11.05077,0.76212 2.68103,-0.64569 4.73642,-1.37622 4.76326,-4.57273 h -0.19053 c -0.82785,2.78726 -3.8258,3.34261 -6.28751,2.45969 -5.46198,-1.95901 -9.75008,-6.53293 -16.00456,-3.73386 -0.88305,0.3952 -1.74727,0.85845 -2.47675,1.49998 -2.87364,2.52714 -2.53911,6.05775 -1.80681,9.49125 0.17712,0.83046 0.71147,1.62053 0.73404,2.4769 0.0241,0.9159 -0.54419,1.81992 -0.83268,2.66743 2.18817,0.50828 2.14418,2.48106 3.58876,3.9025 0.9575,0.94217 2.01478,-0.35066 3.05231,-0.10543 1.38127,0.3265 0.32234,2.86801 0.0275,3.63362 -2.59417,-1.22924 -5.20922,-2.50011 -7.62122,-4.06687 -0.81201,-0.52745 -1.959321,-1.06895 -2.525994,-1.87472 -0.67217,-0.95579 -0.200379,-2.33291 -0.148783,-3.39441 0.150353,-3.09319 1.118123,-6.0699 1.324023,-9.14547 0.10214,-1.52587 -0.301401,-3.12515 -0.74994,-4.57273 -0.258788,-0.83518 -0.823466,-1.78036 -0.564966,-2.66743 0.574688,-1.97203 1.9438,-3.97793 3.01071,-5.71592 2.33799,-3.80856 6.20151,-7.8685 10.0746,-10.17257 7.52214,-4.47484 17.82979,-4.23553 25.59063,-0.25721 4.52898,2.32163 7.85706,5.87938 10.66971,10.04873 h 0.19053 c -1.03522,-3.64786 -2.59156,-6.8435 -5.33486,-9.52374 -1.16902,-1.14214 -2.69257,-1.89733 -3.8106,-3.05129 2.94477,-0.0244 6.20026,-0.82713 8.7644,-2.28636 v -0.19053 c -6.35321,1.56533 -12.59344,-0.16788 -18.86253,-1.09144 -3.18418,-0.4691 -6.14931,-0.45919 -9.33599,-0.43281 v -0.19053 c 3.8498,-1.40131 7.3328,-3.89195 11.2413,-5.32472 7.50042,-2.74948 15.24481,-1.87616 22.48261,1.13304 -3.73489,-5.0738 -11.65858,-5.83304 -17.33829,-5.71591 4.40133,-5.102 7.01393,-11.26098 5.5226,-18.100408 -0.41653,-1.91028 -1.351,-3.55244 -2.09305,-5.33485 h -0.19053 c 0.16865,3.92574 0.86606,7.31922 -0.16848,11.241298 -2.55198,9.67485 -10.82564,13.20943 -19.07511,17.106 -2.94994,1.39337 -5.702,3.08598 -8.57386,4.61449 2.19825,-3.86271 1.98403,-8.28264 3.28092,-12.38449 1.2128,-3.83583 3.64195,-7.46181 5.43642,-11.05077 1.09202,-2.184028 1.88677,-4.811578 3.51189,-6.668568 1.8433,-2.10631 4.15334,-3.25316 6.44276,-4.76327 v -0.19053 l -5.90645,1.14318 0.38106,-7.81175 h -0.19053 c -0.7127,8.95442 -6.80642,15.33813 -10.09812,23.244728 l -1.27624,-4.19167 -2.53437,-5.144328 h -0.19053 c 0.62766,4.269168 1.61691,8.191348 1.31666,12.575018 -0.76753,11.20637 -7.46272,19.15591 -14.463272,27.24588 -0.866717,-4.66845 -0.76212,-9.55793 -0.76212,-14.2898 0,-17.82359 3.353586,-40.970608 22.101542,-48.775818 v -0.19054 c -5.56896,0.44323 -10.85037,3.99123 -14.67084,7.81176 -1.55415,-6.00458 -4.635357,-11.58637 -10.669724,-14.09927 1.565077,2.2218 3.687568,3.82569 4.995406,6.28751 1.852974,3.48795 3.255498,7.63665 2.334448,11.62236 -0.415814,1.79933 -1.655473,3.4894 -2.445159,5.14433 -1.4532,3.04545 -2.629891,6.0901 -3.550983,9.336 h -0.19055 c -0.57991,-6.64133 -6.68876,-11.16618 -8.066679,-17.52881 -0.761213,-3.51498 -0.262756,-7.26682 0.773303,-10.66971 0.428029,-1.40584 1.783209,-3.14413 1.767985,-4.57274 m -11.812892,0.5716 c -1.966837,3.73253 -0.627019,8.30307 3.620079,9.52652 l -1.143184,-3.62008 h 0.190528 l 1.714776,3.42955 c 2.463926,-3.92053 -0.826556,-7.85569 -4.382199,-9.33599 m -9.335994,2.66742 c 0.808078,4.34994 2.397525,7.14029 7.240155,7.24016 l -2.286364,-2.85795 3.239019,2.28636 c -0.262724,-1.09096 -0.309848,-2.22354 -0.838852,-3.23902 -1.449489,-2.78248 -4.491258,-3.42955 -7.353948,-3.42955 m 57.349699,10.47918 0.57159,-3.62008 h 0.19053 l 0.19053,3.81062 c 3.50821,-2.58394 2.25059,-6.526 0.57159,-9.71706 -3.71537,1.04345 -4.23703,7.27867 -1.52424,9.52652 m -45.53681,-7.43069 -0.190528,0.19053 0.190528,-0.19053 m 13.33714,0.76212 c -3.34668,4.96499 -4.376388,11.46605 1.714775,14.86139 l -0.381056,-6.28751 h 0.190528 l 1.143183,6.09697 c 4.639226,-3.58055 2.804022,-12.81073 -2.66743,-14.67085 m -20.196238,0.38107 -0.190528,0.19053 0.190528,-0.19053 m -16.195098,3.04848 c -2.6928,5.05627 -1.509427,11.48321 4.572734,13.14662 l -1.524247,-5.14433 h 0.190536 c 0.562403,1.35262 1.243841,3.94862 2.476895,4.76326 0.44254,-1.62132 1.022615,-3.04213 0.945152,-4.76326 -0.169436,-3.76443 -3.425129,-6.60789 -6.66107,-8.00229 m 60.969786,0 c -1.23434,3.79468 -1.11132,7.40441 3.04848,9.14547 l -0.95265,-3.62008 h 0.19053 l 1.52424,3.42955 c 2.47086,-3.30328 -0.28886,-7.93809 -3.8106,-8.95494 m 9.90758,9.14547 2.85796,-3.04849 -1.9053,3.62008 c 3.15201,-0.42486 5.63091,-2.6026 5.71312,-5.90645 0.0161,-0.64613 0.27022,-2.21371 -0.32917,-2.65463 -0.6525,-0.48 -2.11381,0.31464 -2.71653,0.6082 -3.28002,1.59758 -3.62008,4.07636 -3.62008,7.38129 m -16.00456,-4.00114 c -1.53171,5.4485 0.0219,10.00646 5.71591,11.62236 l -1.9053,-4.57273 h 0.19053 l 2.47689,4.00114 c 0.82235,-1.00468 0.84437,-2.76371 0.64966,-4.00114 -0.59644,-3.79054 -3.48445,-6.18633 -7.12769,-7.04963 m 22.10155,5.90645 4.19167,-1.90531 v 0.19053 l -3.42955,2.66743 c 3.17264,0.59113 5.97819,0.0755 7.79924,-2.85796 0.38941,-0.62727 1.48684,-2.35218 0.95223,-3.09833 -0.49326,-0.68844 -2.11579,-0.52151 -2.84503,-0.52175 -3.82082,-10e-4 -5.66451,1.98739 -6.66856,5.52539 m -3.0485,-5.14433 -0.19053,0.19053 0.19053,-0.19053 m -70.877369,1.71478 -0.190528,0.19053 0.190528,-0.19053 m -11.622363,1.14318 c -1.933518,6.54116 2.703688,12.62877 9.335996,12.76555 l -3.42955,-5.14433 4.382206,4.38221 c 0,-1.77764 0.152909,-3.60508 -0.332694,-5.33486 -1.310236,-4.66714 -5.896184,-5.66829 -9.955958,-6.66857 m 21.529959,13.33714 c 1.254736,-1.03703 2.606048,-3.07546 3.239015,-4.57273 h 0.190528 l -2.476895,5.14432 c 6.874357,-0.92574 8.380472,-7.07609 7.240162,-12.95608 -6.145982,0.90773 -9.86098,6.4482 -8.19281,12.38449 M 39.327445,88.260372 c -2.260364,3.35337 -3.349697,7.64014 0.571592,10.28866 v -3.81061 h 0.190528 l 0.571592,3.81061 h 0.190528 c 2.533856,-3.53836 2.222954,-7.64874 -1.52424,-10.28866 m 75.450105,0.76213 -0.19054,0.19053 0.19054,-0.19053 m 30.10383,10.28865 1.14318,-3.62008 h 0.19054 l -0.5716,3.81061 c 4.37337,-1.29608 4.16507,-6.48604 2.28637,-9.71706 -2.85833,1.23357 -6.95602,6.96693 -3.04849,9.52653 m -43.63149,1.524238 2.66742,-2.857958 -1.9053,3.429548 c 4.47958,-0.35654 7.39732,-4.555788 6.09697,-8.954928 -4.49711,1.16396 -7.49894,3.32052 -6.85909,8.383338 m -47.823186,-7.621218 -0.190528,0.19053 0.190528,-0.19053 m 70.877366,4.38221 4.9538,-0.57159 v 0.19052 l -4.76326,1.14319 c 2.42566,2.927358 7.38608,2.196518 10.09812,0.14496 0.69193,-0.52342 2.4547,-1.7488 2.30209,-2.77711 -0.16149,-1.08803 -2.74772,-1.79522 -3.63581,-2.00645 -3.62805,-0.86291 -7.51111,0.0683 -8.95494,3.87648 m -51.633775,-3.23902 -0.190535,0.19052 0.190535,-0.19052 m 11.241297,3.04848 c -3.113131,4.557298 -5.330922,10.595428 0.571592,14.289788 l 0.190536,-5.52538 h 0.190528 l 0.381063,5.52538 c 4.409903,-3.13237 4.408823,-12.337308 -1.333719,-14.289788 m 20.196248,0.38107 -0.19053,0.19052 0.19053,-0.19052 m -71.639496,1.33371 c 0,4.640088 1.661422,8.178468 6.859101,8.192818 l -2.476902,-3.23903 3.239022,2.66744 c -0.0029,-4.80611 -2.972529,-7.253748 -7.621221,-7.621228 m 112.222506,8.192818 3.62008,-2.09584 -3.23902,2.66743 c 4.20618,2.87347 8.11951,-3.11399 8.19282,-6.66857 -4.2701,-0.33704 -8.53218,1.0598 -8.57388,6.09698 m -84.976637,4.76326 -4.763262,-4.57273 5.334854,3.62007 c -0.04083,-4.93683 -3.269498,-8.94844 -8.192813,-9.69147 -0.914799,-0.13806 -3.709791,-0.75565 -4.376913,0.0894 -0.707182,0.89579 0.255994,3.50909 0.581306,4.45777 1.866115,5.44198 6.293494,6.50134 11.416828,6.09698 m 65.351987,0.57159 3.42955,-3.42955 -2.66743,4.00114 c 3.66297,-0.46335 6.67397,-1.94059 7.4673,-5.90644 0.14834,-0.74157 0.56825,-3.08718 -0.15157,-3.60729 -0.67327,-0.4865 -2.42396,0.20929 -3.12406,0.43383 -4.22734,1.35583 -4.95379,4.5535 -4.95379,8.50831 m -22.10154,-8.95494 c -2.16987,4.63984 -1.32574,10.30395 4.19167,11.8129 l -1.33371,-4.19167 h 0.19053 l 1.9053,3.8106 c 3.41069,-4.22658 -1.04474,-9.80396 -4.95379,-11.43183 m 43.44096,8.95494 4.57274,-0.38106 c -1.04941,0.85994 -3.05158,1.03729 -4.38221,1.14318 1.65206,3.06328 6.70183,2.42259 9.14547,0.9084 0.71926,-0.44571 2.4375,-1.43926 2.4375,-2.4156 0,-1.04412 -2.21645,-1.90523 -3.00909,-2.21505 -3.12508,-1.22157 -7.3585,-0.36041 -8.76441,2.96013 m -40.64651,-1.58776 -0.0635,0.12704 0.0635,-0.12704 m -73.67183,0.82564 c 1.026885,4.96182 4.487876,7.22772 9.335997,6.28751 l -3.048487,-2.28637 v -0.19053 l 3.620078,1.71478 c -1.019683,-4.92708 -5.3044,-6.63415 -9.907588,-5.52539 m 5.906446,3.42955 0.381064,0.19053 v 0.19053 l -0.381064,-0.38106 m 37.915582,4.76326 c 0.03853,4.65616 2.743007,7.04964 7.240165,7.04964 l -2.095839,-2.4769 2.857958,1.90531 c -0.36944,-4.68082 -3.588746,-6.47512 -8.002284,-6.47805 m 64.208812,4.38221 2.85795,-0.95266 -2.47689,1.52425 c 3.40845,2.53939 6.59893,-1.1894 7.62122,-4.19167 -3.66385,-1.16382 -6.74498,-0.2374 -8.00228,3.62008 m 10.47918,2.66743 4.57273,-1.14318 v 0.19052 l -4.19167,1.71478 v 0.19053 c 4.23386,2.25474 10.66166,0.5601 11.62236,-4.76327 -4.64576,-1.57176 -10.27416,-2.1924 -12.00342,3.81062 m -7.4307,-3.81062 -0.19053,0.19053 0.19053,-0.19053 m -119.653196,1.33372 c 0.776616,4.014 7.077598,6.34986 9.907588,3.04848 l -3.429551,-0.95264 v -0.19053 l 3.620086,0.57159 c -1.476726,-4.62484 -6.620044,-3.81857 -10.098123,-2.4769 m 57.349701,-0.38106 0.190529,0.38106 -0.190529,-0.38106 m -35.438686,8.95494 c 4.393764,2.89768 9.97026,2.91906 12.765554,-2.09584 l -4.572734,0.38106 v -0.19053 l 4.382199,-1.33372 c -4.302612,-2.63338 -10.509267,-2.20938 -12.575019,3.23903 m -12.765547,-1.14319 -3.429551,0.95266 v -0.19054 l 3.048487,-1.14318 c -2.097099,-3.199 -9.112299,-0.0562 -9.009913,3.40427 0.03161,1.06922 2.519,1.2889 3.293996,1.34195 2.846941,0.1949 5.309787,-1.63777 6.096981,-4.36516 m 116.033118,-0.19052 4.9538,4.19167 -5.90645,-3.23903 c 0.25216,1.30027 0.50989,2.61631 1.10704,3.81062 2.59509,5.19019 7.81906,5.15807 12.80169,5.14432 -0.87322,-4.50279 -2.8964,-9.40098 -8.00228,-10.20501 -1.6798,-0.26452 -3.29675,0.0869 -4.9538,0.29743 m -16.1951,0.38105 2.66743,4.19168 -3.23902,-3.62009 c -0.61818,0.90489 -0.452,2.38539 -0.26375,3.42955 0.82269,4.5629 4.70064,5.88675 8.64709,6.85911 1.32237,-5.55398 -2.22757,-10.4195 -7.81175,-10.86025 m -103.458097,0.82564 0.06351,0.0635 c -0.09403,0.0313 -0.210835,-0.0635 -0.06351,-0.0635 m 11.622364,1.84179 c -1.177742,4.19112 0.240266,8.31962 4.953797,8.95494 l -1.524247,-3.23902 h 0.190528 l 1.905311,2.85796 c 2.302469,-3.84373 -2.176873,-7.77854 -5.525389,-8.57388 m 29.532243,1.14319 c -2.035147,3.67006 -2.977555,7.55528 1.143177,10.28865 l -0.190529,-3.81062 h 0.190529 l 0.762127,3.81062 c 3.176448,-2.82935 2.093193,-8.73966 -1.905304,-10.28865 m 83.64292,0 -0.19053,0.19052 0.19053,-0.19052 m -18.48147,0.38106 0.19053,0.38106 -0.19053,-0.38106 m -82.118674,3.04849 c 1.297317,3.98021 4.240047,7.24756 8.764404,5.71591 l -2.476895,-2.09583 3.239022,1.52424 c -1.116906,-4.82538 -5.128476,-5.96375 -9.526531,-5.14432 m -31.056483,0.57159 c 1.608464,3.86334 6.125958,8.21002 10.479179,4.9538 l -3.429551,-1.71478 v -0.19053 l 3.620079,1.14318 c -0.746608,-4.981 -6.773774,-5.86788 -10.669707,-4.19167 m 21.911014,0.38106 -0.190528,0.19053 0.190528,-0.19053 m 15.051914,2.28637 0.381064,0.19053 v 0.19053 l -0.381064,-0.38106 m -29.9133,0.19053 -0.190528,0.19053 0.190528,-0.19053 m 7.621222,6.66857 -3.620079,0.76212 v -0.19053 l 3.42955,-1.14318 c -2.194249,-2.05258 -5.781577,-1.72448 -7.994781,0.0986 -0.618449,0.50945 -2.130527,1.9916 -1.832543,2.90929 0.267365,0.82339 1.86214,1.15449 2.58716,1.34458 2.966718,0.77772 6.517687,-0.7001 7.430693,-3.78091 m 60.779253,-0.19056 c 3.033224,4.82291 0.05847,9.71595 -7.21e-4,14.86139 -0.01188,1.03308 -0.261848,2.23971 0.115565,3.23828 0.391764,1.03661 1.6932,1.75138 2.55261,2.36723 2.35186,1.6854 5.06162,3.36562 7.81174,4.30208 -0.73547,1.03545 -2.81172,3.22293 -4.19167,3.24991 -0.80843,0.0158 -1.69125,-0.96089 -2.28636,-1.42545 -1.817584,-1.41893 -5.229653,-3.49679 -6.146086,-5.6674 -0.379674,-0.8993 -0.141431,-2.24692 -0.141431,-3.20669 0,-1.87707 -0.0718,-3.69418 0.410473,-5.52538 0.500257,-1.89943 1.631148,-3.95754 1.796076,-5.90646 0.103755,-1.22602 -0.812794,-2.59988 -1.063366,-3.8106 h 0.190529 l 0.762127,0.76212 -0.952656,-2.09584 1.333712,1.71477 h 0.190536 l -0.381064,-2.85796 m 19.81518,3.0485 v 0.19053 c -5.17949,-1.19828 -12.64099,-1.83183 -14.86138,4.57273 -1.16602,-2.19389 1.05956,-4.70414 2.85796,-5.73885 4.07151,-2.34258 8.16923,-1.04182 12.00342,0.97559 m -84.786118,7.81175 c 5.281364,1.48475 12.539049,0.50354 13.527674,-6.09698 l -5.144326,1.90531 v -0.19053 c 1.317279,-0.55136 3.787023,-1.46796 4.572734,-2.66743 -1.813092,-0.41946 -3.436528,-0.93303 -5.334861,-0.72905 -3.945938,0.42399 -6.760402,4.14616 -7.621221,7.77868 m 102.314918,-3.42955 h 0.19053 c -0.34515,3.44044 -3.99942,4.88932 -7.04963,4.75578 -6.05242,-0.26506 -10.86906,-5.30693 -16.95722,-6.0351 -1.64725,-0.19701 -3.44126,0.0855 -4.95379,0.76741 -0.99414,0.44818 -1.93238,1.44107 -3.04849,1.27403 1.00873,-3.4038 5.22966,-4.57171 8.38334,-4.57273 5.84839,-0.002 10.28016,3.78656 15.6235,5.48833 2.81729,0.89726 5.92748,0.97477 7.81176,-1.67772 m -38.487178,-2.28637 c 0.90507,1.15523 0.08353,2.60621 -0.381056,3.81061 H 95.91502 l 0.571592,-3.81061 m -55.634927,1.58774 c 0.147357,0 0.03053,0.0949 -0.06351,0.0635 l 0.06351,-0.0635 m 5.144326,10.79675 c 3.891519,-0.92693 8.046838,-1.68519 9.16458,-6.28751 0.270187,-1.1125 0.171423,-2.29321 0.171423,-3.42955 l -3.810614,3.23902 2.667431,-3.81061 c -5.249837,0 -9.824285,4.7694 -8.19282,10.28865 m 71.258429,4.38221 -1.14318,0.95265 c 3.6489,-0.67989 5.60696,1.213 4.90412,4.95379 -0.86039,4.57934 -4.1803,8.41719 -4.50601,13.14661 -0.11999,1.74232 0.47047,2.95746 0.9356,4.57274 -4.43117,2.26348 -4.76326,8.06287 -4.76326,12.38448 h -0.19052 c -3.46838,-5.14053 -6.76638,-10.86073 -8.76441,-16.76669 4.66846,-0.69976 9.57886,-5.38723 12.76554,-8.57387 -3.11947,1.92542 -5.93305,4.33096 -9.14546,6.1233 -1.00417,0.56025 -2.60272,1.67887 -3.81061,1.40766 -1.41034,-0.31667 -2.56632,-2.19725 -3.27446,-3.33929 -1.985244,-3.20174 -3.028058,-7.98272 -5.715767,-10.63371 -1.803515,-1.77885 -5.105634,-1.55043 -7.395408,-1.36972 v -0.19053 l 2.476896,-0.57159 v -0.38106 l -3.429551,0.19053 v -0.19053 l 2.857959,-0.57159 v -0.19053 l -3.620079,-0.19053 v -0.19053 l 3.620079,-0.38106 v -0.19053 l -3.429551,-0.38107 v -0.38106 l 4.191678,0.19054 -1.90531,-1.71478 c 6.510658,0.5685 9.603562,6.58144 13.289514,11.05077 1.17619,1.42616 2.33487,3.39241 4.04878,4.19167 l 7.24016,-7.81175 -5.71592,4.97085 -2.06334,1.41927 -2.5094,-2.77004 v -0.19053 c 2.48156,-1.9127 5.50249,-3.77331 7.21473,-6.47804 0.63026,-0.99559 1.3789,-4.14069 -0.37562,-4.5598 -0.85389,-0.20397 -2.0075,0.55238 -2.83796,0.74919 -0.85979,-1.54462 -1.6103,-3.18879 -3.23902,-4.00114 0.85939,-2.64199 -0.38106,-4.73545 -0.38106,-7.43069 3.12638,0.55556 6.89527,2.38258 9.52652,4.12831 0.91156,0.60476 2.11663,1.25361 2.74299,2.17624 0.53548,0.78875 0.2421,1.94094 0.43296,2.84091 0.33282,1.56946 1.08445,2.70302 1.96837,4.00115 m 14.48033,2.28636 v 0.19053 c -8.22498,3.06577 -11.77961,-6.63336 -16.76669,-11.01563 -2.87289,-2.52449 -6.57222,-3.28988 -10.09812,-4.41735 1.99389,-0.83668 5.15528,0.24114 7.04963,0.99147 3.14464,1.2456 6.83701,3.12173 9.11033,5.67785 3.47725,3.90978 4.65143,8.57313 10.70485,8.57313 m -72.592149,-8.95494 c 4.369143,0.84732 8.843229,0.32806 9.907596,-4.76326 l -3.620086,1.33371 v -0.19052 l 3.239022,-1.71478 c -4.013413,-2.98714 -8.629037,1.55634 -9.526532,5.33485 m 99.266429,-4.57273 c -0.84376,4.52852 -0.19167,8.9868 3.81061,11.85317 1.70587,1.22171 3.85171,1.57968 5.71592,2.48602 3.27531,1.5924 5.98243,4.78904 6.28751,8.52448 h 0.19053 c 2.26969,-7.11008 10.55366,-4.8116 15.81403,-6.48348 4.84065,-1.53848 6.21688,-5.8137 7.04964,-10.28321 h 0.19053 c 3.22767,7.86962 0.71512,17.18097 -6.28751,22.21048 -4.84799,3.48198 -11.28464,5.12852 -16.95722,6.75017 2.28753,-3.24735 6.4809,-4.79978 9.90759,-6.52523 5.37548,-2.70676 11.81718,-7.63076 12.76555,-14.05208 h -0.19053 c -2.07637,8.74194 -12.09665,11.90896 -19.05306,15.58176 -2.06304,1.08925 -3.67853,3.09278 -5.71592,4.04289 -0.76328,-5.0958 -6.22467,-9.04266 -9.50948,-12.57502 -3.86131,-4.15231 -6.11403,-9.38023 -6.11403,-15.05191 h -0.19053 c 0,5.50413 1.04715,9.93419 4.33369,14.48032 3.20139,4.42835 7.9616,7.81455 9.76557,13.14661 -1.53994,-0.88185 -2.75704,-2.54797 -4.19167,-3.64213 -7.66376,-5.8449 -14.64157,-13.59935 -11.42697,-23.9848 0.71726,-2.31723 1.82753,-4.96059 3.80575,-6.47804 m -106.88765,0.38106 -0.190528,0.19053 0.190528,-0.19053 m 64.78039,5.71592 4.19168,5.33486 c -2.00604,-0.81748 -5.34026,-2.39111 -4.19168,-5.33486 m 4.9538,5.90645 -0.19053,0.19053 0.19053,-0.19053 m -24.578443,0.76212 6.287513,5.52539 -1.49175,0.52351 -1.40414,-1.47617 -3.391623,-4.57273 m 100.409613,0.38106 v 0.57159 h 0.19053 l -0.19053,-0.57159 m -64.97093,0.19053 -0.19053,0.19053 0.19053,-0.19053 m 64.7804,0.57159 v 0.57159 h 0.19053 l -0.19053,-0.57159 m -34.10498,0.19053 c 2.16866,3.07859 5.16254,5.38993 6.99082,8.76441 1.69742,3.13296 1.92147,6.34663 2.72624,9.71706 h 0.19054 c 0,-7.89772 -3.30303,-13.96542 -9.9076,-18.48147 m -50.30006,2.09584 0.19052,0.19053 -0.19052,-0.19053 m 60.39818,16.00457 h 0.19053 c 2.50556,-6.45786 8.45352,-10.74861 14.67086,-13.33714 -1.4077,-0.24661 -3.69998,1.23296 -4.9538,1.85828 -4.54033,2.26432 -9.4253,5.95515 -9.90759,11.47886 M 96.867676,181.42983 c 0.963291,2.31372 2.193983,4.65614 3.692134,6.66858 0.69169,0.92915 1.94002,1.67886 2.43278,2.70049 1.50266,3.11548 2.50092,6.53945 4.02246,9.68399 3.82996,7.91542 9.50567,14.92209 17.47956,18.90956 2.14658,1.07345 4.45809,2.26581 6.8591,2.6204 v 0.19053 h -6.8591 c -1.0753,0 -2.41141,0.20843 -3.42955,-0.19155 -2.3761,-0.93352 -4.61404,-3.42734 -6.47805,-5.11098 -6.49693,-5.86821 -11.34078,-13.20517 -14.4437,-21.37175 -1.253982,-3.30033 -2.24108,-6.80915 -2.846942,-10.28865 -0.19423,-1.11544 -0.816381,-2.72967 -0.428692,-3.81062 m 20.005704,0 -0.38106,0.5716 0.38106,-0.5716 m -27.436397,34.10498 v 6.47804 l -6.478039,0.19053 v -0.19053 z"
         id="path1-1"
         sodipodi:nodetypes="cccccccccccssscccccsssccccssccsscccsccsccsccccsscscccscccccsccssssssccscscssccscscssccssscccccsscccscsscscccsssscsscscscssssssssscccccccccscssscssccccssssscsscsssssssssccscccsccsccsccsscssscccccccccscsccccsssccsscccccccccccsccccccccccccccccccccccccsccccccccccsssccccccscccccssccccccccccccscccccccccccccccccccccccccccccccccccsssccccccccccccccccccccccccccsssccccsssccccccccccssccccccccccccccccccccccccccccccccccccccccccccccccccccccssccccscscccccccccccccccccccccccccccccccccccccccccccccccccccccsscccssscscssssccccccccccsccccccsccccssccscccccccccsccccccsscccccssssccccccccccccccccsccccccsscccssscccscssccccccccssccsccscsccscsccscsscccccccccccccccccccccccccccsccccccccccccssssccsssssccccccccc" /><path
         style="fill:url(#linearGradient28847);fill-opacity:1;stroke:none;stroke-width:0.720116"
         d="m 70.344069,222.30138 c -3.404424,0.0554 -7.473425,0.12364 -10.669708,0.12364 -6.417944,0 -12.839374,0.47377 -19.243592,0.75463 -3.202239,0.14043 -7.550369,-0.0925 -10.47918,1.34121 v 0.19052 c 1.612231,0.80915 3.569757,0.79529 5.334854,0.98427 3.616838,0.38722 7.229723,0.57905 10.860244,0.738 11.545347,0.50554 23.129148,0.43204 34.676559,0.93768 4.919412,0.21539 11.395801,-0.61625 16.00457,1.3412 -3.419498,1.45235 -7.976584,0.99103 -11.622364,1.15067 -8.493713,0.37195 -17.033259,0.54368 -25.531091,0.75184 -4.682005,0.11469 -10.872154,-0.35329 -15.24245,1.52704 v 0.19052 c 1.502838,0.75427 3.308211,0.80481 4.953798,1.0069 3.668017,0.45048 7.364111,0.55396 11.050772,0.71537 10.962392,0.48003 22.01527,0.17849 32.961784,0.92812 3.953514,0.27074 9.330145,-0.46903 12.956085,1.35076 -2.84026,0.79815 -5.84713,0.76994 -8.764407,0.9697 -4.627916,0.31694 -9.274462,0.53463 -13.908738,0.73758 -3.028086,0.13258 -6.689975,-0.0541 -9.526525,1.15068 v 0.38106 c 1.969624,0.98852 4.511107,0.95965 6.668566,1.17537 4.566793,0.45665 9.136367,0.5368 13.718203,0.73742 12.857951,0.56304 25.819861,0.56304 38.677701,0 6.05498,-0.26512 12.83198,0.13286 18.672,-1.72226 v -0.38106 c -2.32967,-0.98944 -5.13879,-0.93832 -7.62122,-1.17552 -7.08355,-0.67688 -14.82231,0.0655 -21.72049,-1.87297 v -0.19053 c 3.5294,-1.12113 7.39955,-0.91018 11.05077,-1.16023 6.90439,-0.47282 13.85375,-0.62534 20.76784,-0.92812 4.03226,-0.17655 9.68364,0.19323 13.33713,-1.72227 v -0.19052 c -2.69398,-1.41242 -6.38011,-1.08476 -9.33599,-1.36605 -6.64271,-0.63219 -13.35063,-0.44753 -20.00571,-0.90327 -3.23805,-0.22174 -6.81421,-0.0307 -9.90759,-1.16023 1.8279,-0.9174 4.10289,-0.79446 6.09698,-0.98499 4.6796,-0.44716 9.39867,-0.42692 14.09926,-0.54205 13.85145,-0.33929 28.45567,0.3639 42.10726,-2.28358 -0.53333,-0.84626 -1.73845,-0.85757 -2.66743,-0.96221 -2.28532,-0.25744 -4.57368,-0.37673 -6.8591,-0.59436 -9.89883,-0.94268 -19.9621,-0.92032 -29.9133,-0.92032 v -0.19053 m -19.62465,0 v 0.19053 h -6.8591 c -1.0753,0 -2.41141,0.20843 -3.42955,-0.19155 m -31.628073,10e-4 -6.478039,0.19053 v -0.19053 z"
         id="path1"
         sodipodi:nodetypes="cssccscscssccscscssccssscccccsscccscsscscccccsccccc" /></g></g></svg>
